<?xml version="1.0" standalone="no"?> <!DOCTYPE svg PUBLIC "-//W3C//DTD SVG 1.0//EN" "http://www.w3.org/TR/2001/REC-SVG-20010904/DTD/svg10.dtd" > <svg xmlns="http://www.w3.org/2000/svg" width="100%" height="100%">
<defs >
<font id="dinmedium" horiz-adv-x="1030" ><font-face
    font-family="DIN Medium"
    units-per-em="2048"
    panose-1="2 2 5 0 0 0 0 0 0 0"
    ascent="1470"
    descent="-452"
    alphabetic="0" />
<missing-glyph horiz-adv-x="1536" d="M256 0V1280H1280V0H256ZM1247 33V1247H289V33H1247Z" />
<glyph unicode=" " glyph-name="space" horiz-adv-x="492" />
<glyph unicode="!" glyph-name="exclam" horiz-adv-x="680" d="M502 1458L457 434H293L248 1458H502ZM489 0H260V223H489V0Z" />
<glyph unicode="&quot;" glyph-name="quotedbl" horiz-adv-x="909" d="M750 1067H543V1458H750V1067ZM367 1067H160V1458H367V1067Z" />
<glyph unicode="#" glyph-name="numbersign" horiz-adv-x="1376" d="M1276 872H1087L1047 618H1208V426H1016L948 0H731L799 426H518L453 0H233L301 426H139V618H332L373 872H207V1065H401L465 1466H684L621 1065H899L963 1466H1180L1116 1065H1276V872ZM868 872H590L549
618H829L868 872Z" />
<glyph unicode="$" glyph-name="dollar" horiz-adv-x="1245" d="M1139 416Q1139 297 1084 205T928 60T696 -6V-233H528V-12Q455 -9 394 2T272 38T162 96T61 180L209 326Q280 255 361 224T547 186V641L494 647Q406 659 337 689T219 764Q111 864 111 1042Q111 1159
161 1250T306 1398T528 1466V1651H696V1468Q816 1461 910 1422T1087 1305L946 1165Q842 1263 678 1276V834L748 823Q817 812 865 798T950 764T1020 715Q1139 611 1139 416ZM547 848V1274Q442 1264 384 1203T326 1051Q326 964 381 915Q442 861 547 848ZM920 410Q920
509 862 561Q827 593 788 604T678 625V190Q792 202 856 259T920 410Z" />
<glyph unicode="%" glyph-name="percent" horiz-adv-x="1724" d="M1606 266Q1606 138 1525 62T1319 -14Q1195 -14 1114 62T1032 266V473Q1032 558 1069 622T1173 720T1319 754Q1398 754 1464 720T1568 622T1606 473V266ZM1288 1458L602 0H434L1122 1458H1288ZM692
985Q692 899 654 837T552 741T406 707Q324 707 260 740T157 836T119 985V1192Q119 1277 156 1341T260 1439T406 1473Q529 1473 610 1397T692 1192V985ZM1448 272V467Q1448 539 1416 576T1319 614Q1190 614 1190 467V272Q1190 125 1319 125Q1383 125 1415 162T1448
272ZM535 991V1186Q535 1258 503 1295T406 1333Q276 1333 276 1186V991Q276 846 406 846Q471 846 503 883T535 991Z" />
<glyph unicode="&amp;" glyph-name="ampersand" horiz-adv-x="1495" d="M1401 0H1133L1014 143Q935 77 845 33T610 -12Q387 -12 263 105T139 422Q139 517 179 591T277 718T428 834Q357 915 317 987T276 1147Q276 1240 320 1313T445 1428T633 1470Q736 1470 814
1428T935 1312T979 1145Q979 1064 939 1002T823 887Q821 887 717 813L1024 446Q1065 503 1082 570T1102 739H1303Q1300 644 1284 564T1236 414T1157 291L1401 0ZM778 1143Q778 1204 737 1246T633 1288Q566 1288 528 1248T489 1145Q489 1103 515 1059T602 944Q606
946 633 964T672 991Q778 1064 778 1143ZM889 291L543 702Q483 662 440 624T371 537T346 426Q346 318 421 248T610 178Q686 178 753 204T889 291Z" />
<glyph unicode="&apos;" glyph-name="quotesingle" horiz-adv-x="526" d="M367 1067H160V1458H367V1067Z" />
<glyph unicode="(" glyph-name="parenleft" horiz-adv-x="649" d="M530 -51L389 -193Q358 -161 324 -127T267 -64T223 2Q194 54 185 110T176 240V1219Q176 1293 185 1348T223 1456Q244 1493 267 1521T324 1585T389 1651L530 1509Q508 1487 486 1465T447 1423T416
1374Q385 1316 385 1206V252Q385 142 416 84Q432 54 449 33T486 -8T530 -51Z" />
<glyph unicode=")" glyph-name="parenright" horiz-adv-x="649" d="M475 240Q475 165 465 109T426 2Q387 -68 262 -193L119 -49Q136 -32 150 -18T180 14T210 52T231 86Q262 144 262 252V1206Q262 1314 231 1372Q211 1411 185 1440T119 1507L262 1651Q387 1526
426 1456Q455 1405 465 1350T475 1219V240Z" />
<glyph unicode="*" glyph-name="asterisk" horiz-adv-x="993" d="M868 954L793 821L565 963L573 694H420L428 963L201 821L125 954L360 1079L125 1206L201 1339L428 1198L420 1464H573L565 1198L793 1339L868 1206L633 1079L868 954Z" />
<glyph unicode="+" glyph-name="plus" horiz-adv-x="1092" d="M987 461H643V117H449V461H104V655H449V997H643V655H987V461Z" />
<glyph unicode="," glyph-name="comma" horiz-adv-x="557" d="M397 -123L160 -317V238H397V-123Z" />
<glyph unicode="-" glyph-name="hyphen" horiz-adv-x="872" d="M735 471H137V666H735V471Z" />
<glyph unicode="." glyph-name="period" horiz-adv-x="569" d="M410 0H160V250H410V0Z" />
<glyph unicode="/" glyph-name="slash" horiz-adv-x="778" d="M784 1610L201 -152H0L584 1610H784Z" />
<glyph unicode="0" glyph-name="zero" horiz-adv-x="1092" d="M967 406Q967 279 911 185T759 39T545 -12Q428 -12 332 39T181 185T125 406V1053Q125 1148 157 1225T247 1358T382 1442T545 1470Q631 1470 708 1442T843 1359T934 1226T967 1053V406ZM758 412V1047Q758
1116 733 1170T658 1254T545 1284Q481 1284 433 1254T359 1170T334 1047V412Q334 305 390 240T545 174Q644 174 701 239T758 412Z" />
<glyph unicode="1" glyph-name="one" horiz-adv-x="1092" d="M727 0H518V1231L233 981V1212L518 1458H727V0Z" />
<glyph unicode="2" glyph-name="two" horiz-adv-x="1092" d="M977 0H129V186L690 868Q768 964 768 1063Q768 1126 743 1177T669 1256T555 1284Q463 1284 402 1229T340 1059H131Q131 1150 162 1227T251 1358T385 1441T555 1470Q680 1470 775 1420T924 1277T977
1061Q977 971 946 905T840 745L383 186H977V0Z" />
<glyph unicode="3" glyph-name="three" horiz-adv-x="1092" d="M979 410Q979 275 920 179T758 35T532 -14Q343 -14 218 89T86 395H295Q301 285 368 230T532 174Q637 174 703 238T770 416Q770 528 708 591T526 655H492V838H526Q638 838 693 896T748 1059Q748 1166
688 1225T532 1284Q438 1284 380 1229T313 1075H104Q110 1170 143 1242T234 1366T368 1445T532 1473Q656 1473 752 1421T902 1277T956 1065Q956 843 774 754Q872 710 925 625T979 410Z" />
<glyph unicode="4" glyph-name="four" horiz-adv-x="1092" d="M1020 219H864V0H662V219H72V414L586 1458H811L299 414H662V754H864V414H1020V219Z" />
<glyph unicode="5" glyph-name="five" horiz-adv-x="1092" d="M981 487Q981 355 956 264T858 100Q744 -14 551 -14Q452 -14 372 17T240 98Q186 152 161 220T129 377H338Q350 279 403 227T551 174Q645 174 702 231Q745 274 758 336T772 487Q772 633 724 713T559
793Q475 793 423 757T352 662H162V1458H948V1272H350V887Q431 971 592 971Q760 971 854 877Q929 803 955 707T981 487Z" />
<glyph unicode="6" glyph-name="six" horiz-adv-x="1092" d="M977 432Q977 301 923 200T770 43T547 -12Q421 -12 323 41T170 193T115 424Q115 480 128 539T166 657T223 782L555 1458H778L465 831Q518 854 594 854Q700 854 787 802T925 653T977 432ZM768 428Q768
538 708 609T545 680Q444 680 384 612T324 428Q324 352 352 294T430 205T545 174Q643 174 705 243T768 428Z" />
<glyph unicode="7" glyph-name="seven" horiz-adv-x="1092" d="M997 1272L510 0H285L774 1272H330V1042H129V1458H997V1272Z" />
<glyph unicode="8" glyph-name="eight" horiz-adv-x="1092" d="M995 412Q995 284 936 187T773 39T545 -12Q422 -12 319 39T156 187T96 412Q96 531 152 616T297 754Q247 785 208 828T145 932T121 1067Q121 1156 153 1231T243 1360T379 1442T545 1470Q634 1470 711
1442T847 1361T938 1232T971 1067Q971 958 923 881T795 754Q883 700 939 617T995 412ZM762 1061Q762 1157 701 1220T545 1284Q451 1284 391 1221T330 1061Q330 964 390 902T545 840Q641 840 701 901T762 1061ZM784 416Q784 517 715 588T545 659Q445 659 375 588T305
416Q305 350 337 294T425 206T545 174Q645 174 714 244T784 416Z" />
<glyph unicode="9" glyph-name="nine" horiz-adv-x="1092" d="M977 1034Q977 949 950 867T868 676L537 0H313L627 627Q574 604 496 604Q390 604 303 656T166 805T115 1026Q115 1157 169 1258T322 1415T545 1470Q670 1470 768 1418T922 1266T977 1034ZM768 1030Q768
1106 740 1164T661 1253T545 1284Q445 1284 385 1215T324 1030Q324 922 383 850T545 778Q644 778 706 845T768 1030Z" />
<glyph unicode=":" glyph-name="colon" horiz-adv-x="621" d="M461 584H213V834H461V584ZM461 0H213V250H461V0Z" />
<glyph unicode=";" glyph-name="semicolon" horiz-adv-x="621" d="M461 584H213V834H461V584ZM455 -123L217 -317V238H455V-123Z" />
<glyph unicode="&lt;" glyph-name="less" horiz-adv-x="2103" d="M1995 469H471L1178 -233H909L106 567L909 1370H1178L471 668H1995V469Z" />
<glyph unicode="=" glyph-name="equal" horiz-adv-x="1092" d="M987 670H104V864H987V670ZM987 272H104V467H987V272Z" />
<glyph unicode="&gt;" glyph-name="greater" horiz-adv-x="2103" d="M1997 567L1194 -233H926L1632 469H106V668H1632L926 1370H1194L1997 567Z" />
<glyph unicode="?" glyph-name="question" horiz-adv-x="1047" d="M963 1079Q963 1011 938 952T864 827L707 606Q689 582 680 551T670 496V434H461V506Q461 567 476 611T530 709L690 924Q754 1009 754 1079Q754 1167 698 1225T553 1284Q493 1284 448 1257T378
1181T354 1077H145Q145 1163 175 1235T262 1360T393 1442T553 1470Q639 1470 713 1443T843 1365T930 1241T963 1079ZM680 0H449V223H680V0Z" />
<glyph unicode="@" glyph-name="at" horiz-adv-x="1507" d="M1376 -4L1180 0V102Q1129 43 1068 15T920 -14Q754 -14 651 100Q621 135 604 171T577 257T563 356T559 479Q559 621 577 707T647 856Q692 910 762 941T918 973Q1076 973 1176 858V983Q1176 1057 1159
1109T1100 1204Q1024 1280 883 1280H625Q485 1280 410 1204Q365 1161 350 1110T334 983V344Q334 260 355 214T436 119L293 -25Q227 30 195 75T147 183T131 334V985Q131 1219 252 1343Q372 1464 604 1464H903Q1133 1464 1253 1343Q1318 1278 1347 1191T1376 985V-4ZM1176
479Q1176 576 1159 645T1095 755T967 797Q847 797 804 714T760 479Q760 383 776 314T839 205T967 164Q1086 164 1131 246T1176 479Z" />
<glyph unicode="A" glyph-name="A" horiz-adv-x="1280" d="M1264 0H1028L928 293H352L252 0H16L551 1458H729L1264 0ZM866 481L645 1128L418 481H866Z" />
<glyph unicode="B" glyph-name="B" horiz-adv-x="1358" d="M1221 412Q1221 280 1166 188T1010 48T780 0H190V1458H758Q890 1458 990 1410T1144 1271T1198 1059Q1198 984 1171 921T1098 814T1001 750Q1095 714 1158 627T1221 412ZM977 1051Q977 1116 948 1163T865
1235T739 1260H412V842H739Q849 842 913 897T977 1051ZM999 422Q999 489 971 538T889 615T760 643H412V199H760Q835 199 889 227T971 306T999 422Z" />
<glyph unicode="C" glyph-name="C" horiz-adv-x="1286" d="M1182 436Q1164 328 1118 244T1004 103T849 17T662 -12Q586 -12 519 5T389 59T279 143Q211 213 181 292T144 463T137 729Q137 862 140 940T156 1083T197 1204T279 1315Q355 1391 452 1430T662 1470Q867
1470 1005 1354T1182 1022H956Q930 1137 855 1204T662 1272Q598 1272 542 1249T446 1184Q417 1152 401 1120T375 1034T362 913T358 729Q358 613 361 547T375 426T401 341T446 274Q485 233 541 210T662 186Q741 186 801 217T901 305T958 436H1182Z" />
<glyph unicode="D" glyph-name="D" horiz-adv-x="1364" d="M1227 739V666Q1227 548 1218 460T1177 287T1079 137Q942 0 702 0H190V1458H702Q942 1458 1079 1321Q1144 1256 1176 1175T1218 1010T1227 813V739ZM1006 739Q1006 865 1002 933T981 1062T928 1161Q838
1260 680 1260H412V199H680Q839 199 928 297Q980 354 993 452T1006 739Z" />
<glyph unicode="E" glyph-name="E" horiz-adv-x="1235" d="M1122 0H190V1458H1122V1260H412V834H1018V637H412V199H1122V0Z" />
<glyph unicode="F" glyph-name="F" horiz-adv-x="1198" d="M1122 1260H412V815H1018V616H412V0H190V1458H1122V1260Z" />
<glyph unicode="G" glyph-name="G" horiz-adv-x="1329" d="M1194 565Q1194 423 1165 327T1063 154Q906 -12 662 -12Q586 -12 519 5T389 59T279 143Q211 213 181 292T144 463T137 729Q137 862 140 940T156 1083T197 1204T279 1315Q434 1470 662 1470Q811 1470 923
1411T1103 1249T1192 1018H969Q951 1097 910 1154T807 1241T662 1272Q600 1272 543 1248T446 1182Q393 1123 376 1036T358 729Q358 613 361 547T375 426T401 341T446 274Q485 233 541 210T662 186Q810 186 899 289Q973 374 973 518V600H662V788H1194V565Z" />
<glyph unicode="H" glyph-name="H" horiz-adv-x="1415" d="M1225 0H1004V637H412V0H190V1458H412V836H1004V1458H1225V0Z" />
<glyph unicode="I" glyph-name="I" horiz-adv-x="602" d="M412 0H190V1458H412V0Z" />
<glyph unicode="J" glyph-name="J" horiz-adv-x="1036" d="M866 461Q866 313 802 207T626 44T381 -12Q309 -12 246 2T130 48T27 129L174 274Q221 229 264 208T381 186Q463 186 522 219T613 318T645 477V1458H866V461Z" />
<glyph unicode="K" glyph-name="K" horiz-adv-x="1348" d="M1327 0H1067L657 719L412 424V0H190V1458H412V725L1008 1458H1278L805 887L1327 0Z" />
<glyph unicode="L" glyph-name="L" horiz-adv-x="1176" d="M1114 0H190V1458H412V199H1114V0Z" />
<glyph unicode="M" glyph-name="M" horiz-adv-x="1665" d="M1477 0H1255V975L920 264H756L412 975V0H190V1458H412L838 551L1255 1458H1477V0Z" />
<glyph unicode="N" glyph-name="N" horiz-adv-x="1479" d="M1288 0H1085L412 1026V0H190V1458H393L1067 434V1458H1288V0Z" />
<glyph unicode="O" glyph-name="O" horiz-adv-x="1323" d="M1186 729Q1186 556 1180 465T1143 293T1047 143Q890 -12 662 -12Q434 -12 279 143Q211 213 181 292T144 463T137 729Q137 862 140 940T156 1083T197 1204T279 1315Q434 1470 662 1470Q890 1470 1047
1315Q1114 1245 1143 1166T1179 994T1186 729ZM965 729Q965 947 949 1036T879 1182Q841 1223 783 1247T662 1272Q599 1272 541 1248T444 1182Q391 1123 375 1035T358 729Q358 613 361 544T375 422T399 341T444 276Q484 234 541 210T662 186Q794 186 879 276Q915
315 933 365T958 501T965 729Z" />
<glyph unicode="P" glyph-name="P" horiz-adv-x="1288" d="M1210 1016Q1210 889 1153 789T989 631T743 573H412V0H190V1458H743Q846 1458 935 1425T1085 1332T1178 1193T1210 1016ZM989 1016Q989 1130 919 1195T731 1260H412V774H731Q849 774 919 838T989 1016Z" />
<glyph unicode="Q" glyph-name="Q" horiz-adv-x="1323" d="M1235 57L1112 -66L967 80Q838 -12 662 -12Q434 -12 279 143Q211 213 181 292T144 463T137 729Q137 862 140 940T156 1083T197 1204T279 1315Q434 1470 662 1470Q890 1470 1047 1315Q1114 1245 1143 1166T1179
994T1186 729Q1186 575 1182 493T1157 336T1092 199L1235 57ZM965 729Q965 947 949 1036T879 1182Q841 1223 783 1247T662 1272Q599 1272 541 1248T444 1182Q391 1123 375 1035T358 729Q358 613 361 544T375 422T399 341T444 276Q484 234 541 210T662 186Q744 186
811 233L657 387L780 510L922 369Q948 423 956 502T965 729Z" />
<glyph unicode="R" glyph-name="R" horiz-adv-x="1341" d="M1253 0H995L688 614H412V0H190V1458H756Q890 1458 993 1404T1152 1253T1208 1032Q1208 882 1128 782T918 645L1253 0ZM987 1030Q987 1137 920 1198T739 1260H412V803H739Q851 803 919 864T987 1030Z" />
<glyph unicode="S" glyph-name="S" horiz-adv-x="1208" d="M1102 416Q1102 319 1064 239T955 102T788 17T578 -12Q411 -12 288 32T61 180L209 326Q258 276 316 244T441 199T582 186Q723 186 803 245T883 410Q883 509 825 561Q799 587 765 600T666 623L494 647Q316
672 217 764Q111 863 111 1042Q111 1169 170 1266T339 1416T598 1470Q745 1470 852 1431T1051 1305L909 1165Q865 1208 815 1232T711 1267T592 1278Q509 1278 449 1249T358 1169T326 1051Q326 964 381 915Q408 892 452 874T545 848L711 823Q811 808 874 783T983
715Q1102 611 1102 416Z" />
<glyph unicode="T" glyph-name="T" horiz-adv-x="1147" d="M1085 1260H684V0H463V1260H61V1458H1085V1260Z" />
<glyph unicode="U" glyph-name="U" horiz-adv-x="1382" d="M1214 492Q1214 344 1146 229T959 51T690 -12Q542 -12 423 51T236 229T168 492V1458H389V502Q389 406 426 335T531 225T690 186Q781 186 849 224T955 334T993 502V1458H1214V492Z" />
<glyph unicode="V" glyph-name="V" horiz-adv-x="1155" d="M1145 1458L662 0H489L10 1458H240L575 397L911 1458H1145Z" />
<glyph unicode="W" glyph-name="W" horiz-adv-x="1784" d="M1761 1458L1380 0H1188L891 1022L596 0H403L23 1458H256L510 416L803 1458H981L1274 416L1528 1458H1761Z" />
<glyph unicode="X" glyph-name="X" horiz-adv-x="1184" d="M1163 0H907L590 559L274 0H20L471 748L49 1458H303L590 936L879 1458H1133L711 748L1163 0Z" />
<glyph unicode="Y" glyph-name="Y" horiz-adv-x="1114" d="M1104 1458L668 600V0H446V600L10 1458H252L557 817L862 1458H1104Z" />
<glyph unicode="Z" glyph-name="Z" horiz-adv-x="1130" d="M1032 0H98V190L772 1260H127V1458H1032V1278L354 199H1032V0Z" />
<glyph unicode="[" glyph-name="bracketleft" horiz-adv-x="711" d="M623 -152H176V1610H623V1423H385V35H623V-152Z" />
<glyph unicode="\" glyph-name="backslash" horiz-adv-x="778" d="M778 -152H578L0 1593H201L778 -152Z" />
<glyph unicode="]" glyph-name="bracketright" horiz-adv-x="711" d="M535 -152H88V33H330V1425H88V1610H535V-152Z" />
<glyph unicode="^" glyph-name="asciicircum" horiz-adv-x="1169" d="M1030 821H813L584 1245L354 821H137L489 1473H680L1030 821Z" />
<glyph unicode="_" glyph-name="underscore" horiz-adv-x="1169" d="M1169 -352H0V-209H1169V-352Z" />
<glyph unicode="`" glyph-name="grave" horiz-adv-x="1024" d="M618 1227H461L233 1559H465L618 1227Z" />
<glyph unicode="a" glyph-name="a" horiz-adv-x="1085" d="M930 0H725V94Q668 37 606 13T449 -12Q355 -12 286 11T170 82Q88 167 88 305Q88 394 129 461T250 566T446 604H721V678Q721 778 667 825T494 872Q407 872 359 850T266 772L129 901Q200 985 285 1018T502
1051Q930 1051 930 694V0ZM721 375V459H477Q386 459 339 420T291 309Q291 162 481 162Q548 162 593 173T676 221Q721 266 721 375Z" />
<glyph unicode="b" glyph-name="b" horiz-adv-x="1133" d="M1016 520Q1016 422 1008 346T974 199T899 80Q857 38 790 13T645 -12Q557 -12 493 15T371 111V0H166V1458H375V934Q429 998 494 1024T647 1051Q724 1051 790 1026T899 958Q947 910 973 840T1008 694T1016
520ZM807 520Q807 626 791 700T728 819T592 864Q503 864 455 819T391 700T375 520Q375 414 391 340T455 220T592 174Q720 174 763 265T807 520Z" />
<glyph unicode="c" glyph-name="c" horiz-adv-x="993" d="M918 135Q871 85 818 52T706 3T575 -12Q453 -12 348 42T178 216T113 520Q113 661 151 763T254 929T402 1022T575 1051Q685 1051 765 1017T918 905L774 766Q726 820 682 842T575 864Q453 864 383 772Q349
729 336 671T322 520Q322 345 383 266Q453 174 575 174Q636 174 681 196T774 272L918 135Z" />
<glyph unicode="d" glyph-name="d" horiz-adv-x="1133" d="M967 0H762V111Q723 63 682 37T594 0T487 -12Q410 -12 344 13T233 80Q184 129 159 199T125 346T117 520Q117 618 125 693T158 839T233 958Q277 1002 343 1026T485 1051Q572 1051 637 1025T758 934V1458H967V0ZM758
520Q758 626 742 700T679 819T543 864Q454 864 406 819T342 700T326 520Q326 414 342 340T406 220T543 174Q671 174 714 265T758 520Z" />
<glyph unicode="e" glyph-name="e" horiz-adv-x="1104" d="M993 459H319Q319 368 350 304T439 204T584 168Q670 168 723 192T836 274L969 150Q884 65 797 27T580 -12Q480 -12 395 17T246 109T148 274T113 520Q113 687 167 806T321 988T553 1051Q689 1051 789 988T941
812T993 551V459ZM786 604Q783 685 758 745T680 841T553 877Q481 877 427 841T346 745Q332 713 328 689T319 604H786Z" />
<glyph unicode="f" glyph-name="f" horiz-adv-x="672" d="M614 860H408V0H199V860H80V1020H199V1180Q199 1257 230 1323T326 1428T483 1468H614V1290H522Q408 1290 408 1169V1020H614V860Z" />
<glyph unicode="g" glyph-name="g" horiz-adv-x="1124" d="M958 6Q958 -122 905 -220T751 -375T514 -432Q434 -432 372 -419T256 -375T147 -295L281 -162Q335 -211 384 -232T506 -254Q630 -254 690 -179T750 10V143Q696 79 631 52T481 25Q407 25 342 49T233 117Q163
187 140 287T117 539Q117 690 140 791T233 961Q276 1004 340 1027T483 1051Q570 1051 634 1024T756 928V1038H958V6ZM750 539Q750 689 709 776T539 864Q410 864 368 777T326 539Q326 388 368 301T539 213Q667 213 708 301T750 539Z" />
<glyph unicode="h" glyph-name="h" horiz-adv-x="1159" d="M1004 0H795V637Q795 751 737 807T586 864Q493 864 434 807T375 637V0H166V1458H375V934Q481 1051 643 1051Q755 1051 837 1004T961 870T1004 670V0Z" />
<glyph unicode="i" glyph-name="i" horiz-adv-x="541" d="M381 1243H160V1464H381V1243ZM375 0H166V1038H375V0Z" />
<glyph unicode="j" glyph-name="j" horiz-adv-x="541" d="M381 1243H160V1464H381V1243ZM375 -137Q375 -263 304 -343T90 -424H-39V-246H53Q114 -246 140 -217T166 -125V1038H375V-137Z" />
<glyph unicode="k" glyph-name="k" horiz-adv-x="1122" d="M1077 0H819L528 479L375 305V0H166V1458H375V559L778 1038H1032L672 631L1077 0Z" />
<glyph unicode="l" glyph-name="l" horiz-adv-x="637" d="M573 0H444Q303 0 232 81T160 287V1458H369V299Q369 237 394 208T481 178H573V0Z" />
<glyph unicode="m" glyph-name="m" horiz-adv-x="1796" d="M1640 0H1432V633Q1432 750 1374 807T1223 864Q1133 864 1071 806T1008 643V0H799V633Q799 711 772 763T697 839T590 864Q496 864 436 806T375 633V0H166V1038H371V934Q422 990 494 1020T647 1051Q843
1051 942 899Q1067 1051 1268 1051Q1432 1051 1530 956Q1640 850 1640 664V0Z" />
<glyph unicode="n" glyph-name="n" horiz-adv-x="1163" d="M1008 0H799V633Q799 711 772 763T697 839T590 864Q496 864 436 806T375 633V0H166V1038H371V934Q423 991 496 1021T647 1051Q806 1051 903 956Q1008 855 1008 664V0Z" />
<glyph unicode="o" glyph-name="o" horiz-adv-x="1100" d="M983 520Q983 376 957 280T860 111Q742 -12 549 -12Q358 -12 240 111Q170 184 144 280T117 520Q117 660 144 758T240 928Q274 964 319 991T423 1034T549 1051Q652 1051 730 1017T860 928Q930 855 956
759T983 520ZM774 520Q774 622 760 691T702 805Q645 864 549 864Q456 864 397 805Q354 761 340 692T326 520Q326 419 340 350T397 236Q459 174 549 174Q642 174 702 236Q746 280 760 349T774 520Z" />
<glyph unicode="p" glyph-name="p" horiz-adv-x="1133" d="M1016 520Q1016 422 1008 346T974 199T899 80Q856 37 790 13T647 -12Q561 -12 495 15T375 106V-420H166V1038H371V928Q428 997 492 1024T645 1051Q723 1051 790 1026T899 958Q947 910 973 840T1008 694T1016
520ZM807 520Q807 626 791 700T728 819T592 864Q503 864 455 819T391 700T375 520Q375 414 391 340T455 220T592 174Q720 174 763 265T807 520Z" />
<glyph unicode="q" glyph-name="q" horiz-adv-x="1133" d="M967 -420H758V106Q722 63 680 37T591 -1T485 -12Q409 -12 344 12T233 80Q184 129 159 199T125 346T117 520Q117 618 125 693T158 839T233 958Q276 1001 343 1026T487 1051Q576 1051 640 1024T762 928V1038H967V-420ZM758
520Q758 626 742 700T679 819T543 864Q454 864 406 819T342 700T326 520Q326 414 342 340T406 220T543 174Q671 174 714 265T758 520Z" />
<glyph unicode="r" glyph-name="r" horiz-adv-x="899" d="M895 952L737 795Q701 832 668 848T582 864Q526 864 479 835T403 754T375 631V0H166V1038H371V926Q412 983 486 1017T647 1051Q724 1051 782 1029T895 952Z" />
<glyph unicode="s" glyph-name="s" horiz-adv-x="1022" d="M934 317Q934 211 879 137T727 26T502 -12Q409 -12 334 1T193 46T66 137L203 274Q308 166 502 166Q566 166 618 182T700 230T729 309Q729 421 590 432L424 446Q325 455 257 488T153 582T117 733Q117 880
228 965T508 1051Q759 1051 893 934L762 801Q671 877 506 877Q414 877 366 841T317 743Q317 638 461 625L625 610Q722 602 791 568T897 471T934 317Z" />
<glyph unicode="t" glyph-name="t" horiz-adv-x="700" d="M600 0H475Q383 0 319 40T222 145T190 289V860H72V1020H190V1335H399V1020H600V860H399V299Q399 178 514 178H600V0Z" />
<glyph unicode="u" glyph-name="u" horiz-adv-x="1163" d="M997 0H793V104Q740 48 668 18T516 -12Q359 -12 260 82Q203 138 180 209T156 375V1038H365V406Q365 290 423 232T573 174Q667 174 727 232T788 406V1038H997V0Z" />
<glyph unicode="v" glyph-name="v" horiz-adv-x="965" d="M948 1038L567 0H397L16 1038H238L483 307L727 1038H948Z" />
<glyph unicode="w" glyph-name="w" horiz-adv-x="1522" d="M1505 1038L1182 0H1004L760 725L518 0H338L16 1038H238L438 307L680 1038H842L1081 307L1282 1038H1505Z" />
<glyph unicode="x" glyph-name="x" d="M985 0H733L516 354L297 0H45L401 530L59 1038H311L516 700L719 1038H971L631 530L985 0Z" />
<glyph unicode="y" glyph-name="y" horiz-adv-x="958" d="M950 1038L492 -207Q462 -288 416 -336Q339 -412 203 -412H119V-223H172Q237 -223 268 -200T322 -113L379 49L16 1038H238L485 307L727 1038H950Z" />
<glyph unicode="z" glyph-name="z" horiz-adv-x="961" d="M862 0H88V166L604 852H117V1038H862V872L342 186H862V0Z" />
<glyph unicode="{" glyph-name="braceleft" horiz-adv-x="834" d="M741 -152H596Q447 -152 377 -82Q337 -40 320 9T303 133V475Q303 561 266 598Q229 637 168 637H92V821H168Q227 821 266 860Q303 897 303 983V1325Q303 1401 320 1451T377 1540Q447 1610 596 1610H741V1423H662Q568
1423 543 1395Q512 1364 512 1264V934Q512 844 476 801T377 729Q438 703 475 659T512 524V195Q512 94 543 63Q568 35 662 35H741V-152Z" />
<glyph unicode="|" glyph-name="bar" horiz-adv-x="692" d="M451 -152H242V1610H451V-152Z" />
<glyph unicode="}" glyph-name="braceright" horiz-adv-x="834" d="M741 637H668Q606 637 567 598Q530 559 530 475V133Q530 59 514 9T457 -82Q387 -152 238 -152H92V35H172Q264 35 291 63Q322 95 322 195V524Q322 614 359 658T459 729Q395 758 359 801T322 934V1264Q322
1363 291 1395Q264 1423 172 1423H92V1610H238Q387 1610 457 1540Q496 1502 513 1452T530 1325V983Q530 899 567 860Q608 821 668 821H741V637Z" />
<glyph unicode="~" glyph-name="asciitilde" horiz-adv-x="1176" d="M1087 573Q996 482 930 448T784 414Q732 414 680 430T555 481Q459 530 393 530Q347 530 312 514T219 440L88 571Q147 630 195 665T288 716T389 731Q447 731 499 714T616 664Q637 654 654 646T699
629T741 617T780 614Q827 614 863 631T954 705L1087 573Z" />
</font>
</defs>
</svg>
